<svg xmlns="http://www.w3.org/2000/svg" version="1.1" xml:space="preserve" width="34" height="34" style=""><rect id="backgroundrect" width="100%" height="100%" x="0" y="0" fill="none" stroke="none" class="" style=""/><style>.st2{fill:#0a0a0a}</style><g class="currentLayer" style=""><title>Layer 1</title><path d="M33.6,8.6275860324502 c-0.4,-1.5 -1.6,-2.6 -3,-3 C27.9,4.827586032450203 17.1,4.827586032450203 17.1,4.827586032450203 S6.4,4.827586032450203 3.8,5.5275860324502 c-1.5,0.4 -2.6,1.5 -3,3 C0,11.227586032450203 0,16.8275860324502 0,16.8275860324502 s0,5.6 0.7000000000000006,8.2 c0.4,1.5 1.6,2.6 3,3 c2.7,0.8 13.4,0.8 13.4,0.8 s10.7,0 13.4,-0.7000000000000006 c1.5,-0.4 2.6,-1.6 3,-3 c0.7000000000000006,-2.7 0.7000000000000006,-8.2 0.7000000000000006,-8.2 s0.1,-5.7 -0.6000000000000006,-8.3 z" fill="red" id="svg_1" class=""/><path d="M13.7,21.9275860324502 l8.9,-5.1 l-8.9,-5.1 v10.2 z" fill="#fff" id="svg_2" class=""/></g></svg>