<svg xmlns="http://www.w3.org/2000/svg" version="1.1" xml:space="preserve" width="33.98630301628884" height="24" style=""><rect id="backgroundrect" width="100%" height="100%" x="0" y="0" fill="none" stroke="none" class="" style=""/><style>.st2{fill:#0a0a0a}</style><g class="currentLayer" style=""><title>Layer 1</title><path d="M33.6 3.8c-.4-1.5-1.6-2.6-3-3C27.9 0 17.1 0 17.1 0S6.4 0 3.8.7c-1.5.4-2.6 1.5-3 3C0 6.4 0 12 0 12s0 5.6.7 8.2c.4 1.5 1.6 2.6 3 3 2.7.8 13.4.8 13.4.8s10.7 0 13.4-.7c1.5-.4 2.6-1.6 3-3 .7-2.7.7-8.2.7-8.2s.1-5.7-.6-8.3z" fill="red" id="svg_1"/><path d="M13.7 17.1l8.9-5.1-8.9-5.1v10.2z" fill="#fff" id="svg_2"/></g></svg>